PathFileType	4	(X/Y/Z)	 0.06m3min.trc
DataRate	CameraRate	NumFrames	NumMarkers	Units	OrigDataRate	OrigDataStartFrame	OrigNumFrames
200	200	7	43	m	200	1	1000
Frame#	Time	C7			LSH			RSH			MAN			RASI			LASI			HIPR			HIPL			RPSI			LPSI			COX			RTHI1			RTHI2			RTHI3			RTHI4			RLKN			RMKN			RSHA1			RSHA2			RSHA3			RSHA4			RLMAL			RMMAL			RHEEL			RMET5			RMET1			RTOE			LTHI1			LTHI2			LTHI3			LTHI4			LLKN			LMKN			LSHA1			LSHA2			LSHA3			LSHA4			LLMAL			LMMAL			LHEEL			LMET5			LMET1			LTOE			
		X1	Y1	Z1	X2	Y2	Z2	X3	Y3	Z3	X4	Y4	Z4	X5	Y5	Z5	X6	Y6	Z6	X7	Y7	Z7	X8	Y8	Z8	X9	Y9	Z9	X10	Y10	Z10	X11	Y11	Z11	X12	Y12	Z12	X13	Y13	Z13	X14	Y14	Z14	X15	Y15	Z15	X16	Y16	Z16	X17	Y17	Z17	X18	Y18	Z18	X19	Y19	Z19	X20	Y20	Z20	X21	Y21	Z21	X22	Y22	Z22	X23	Y23	Z23	X24	Y24	Z24	X25	Y25	Z25	X26	Y26	Z26	X27	Y27	Z27	X28	Y28	Z28	X29	Y29	Z29	X30	Y30	Z30	X31	Y31	Z31	X32	Y32	Z32	X33	Y33	Z33	X34	Y34	Z34	X35	Y35	Z35	X36	Y36	Z36	X37	Y37	Z37	X38	Y38	Z38	X39	Y39	Z39	X40	Y40	Z40	X41	Y41	Z41	X42	Y42	Z42	X43	Y43	Z43	
1	0.0050	-0.308154	1.560936	-0.571814	-0.253867	1.550550	-0.763098	-0.284523	1.549659	-0.387328	-0.156393	1.509274	-0.573474	-0.171620	1.054385	-0.452818	-0.164215	1.053806	-0.699862	-0.239458	1.117675	-0.409729	-0.236623	1.122118	-0.740172	-0.340677	1.110747	-0.542802	-0.338173	1.109567	-0.605910	-0.338681	1.111304	-0.576916	-0.244229	0.835186	-0.365683	-0.237803	0.774402	-0.361947	-0.166617	0.790534	-0.364856	-0.180178	0.847933	-0.368679	-0.254539	0.563527	-0.375932	-0.214243	0.539409	-0.501343	-0.344199	0.333204	-0.375432	-0.358708	0.295876	-0.390094	-0.301134	0.277746	-0.377005	-0.290255	0.315553	-0.367356	-0.368140	0.169338	-0.392344	-0.315068	0.166939	-0.467219	-0.410040	0.159711	-0.446983	-0.273008	0.072709	-0.360756	-0.217051	0.085945	-0.422565	-0.190488	0.075559	-0.411507	-0.282534	0.808399	-0.763589	-0.269572	0.750294	-0.761479	-0.202560	0.766432	-0.785317	-0.223869	0.824548	-0.785036	-0.250429	0.540746	-0.763438	-0.223171	0.517581	-0.644606	-0.349872	0.312079	-0.756686	-0.000000	0.000000	-0.000000	-0.302275	0.260203	-0.766762	-0.299262	0.303731	-0.773594	-0.354780	0.158612	-0.760659	-0.320720	0.164677	-0.675131	-0.407995	0.151082	-0.698530	-0.272900	0.064105	-0.786295	-0.216694	0.077146	-0.733249	-0.192259	0.062932	-0.744285	
2	0.0100	-0.307901	1.560132	-0.572256	-0.253514	1.549263	-0.763758	-0.284335	1.548420	-0.387444	-0.156285	1.508220	-0.573857	-0.172069	1.053480	-0.453349	-0.164452	1.052673	-0.700131	-0.239926	1.116778	-0.410218	-0.236650	1.120850	-0.740601	-0.341252	1.109522	-0.543543	-0.338662	1.108355	-0.606694	-0.339104	1.110071	-0.577558	-0.243809	0.834443	-0.366069	-0.237236	0.773600	-0.362325	-0.166116	0.789935	-0.365519	-0.179815	0.847328	-0.369350	-0.253704	0.562689	-0.376197	-0.213859	0.538759	-0.501848	-0.343753	0.332767	-0.375866	-0.358102	0.295318	-0.390228	-0.300859	0.277122	-0.377741	-0.289808	0.314848	-0.368107	-0.368032	0.168862	-0.392961	-0.315296	0.166761	-0.468152	-0.410359	0.159291	-0.447336	-0.272678	0.072290	-0.362451	-0.217146	0.085803	-0.424533	-0.190386	0.075453	-0.413857	-0.281328	0.807371	-0.764895	-0.268435	0.749238	-0.762629	-0.201120	0.765431	-0.785682	-0.222394	0.823529	-0.785547	-0.249689	0.540065	-0.764240	-0.222848	0.516846	-0.645330	-0.349785	0.311738	-0.757360	-0.000000	0.000000	-0.000000	-0.301923	0.259567	-0.767956	-0.298858	0.303125	-0.774810	-0.353835	0.157661	-0.761978	-0.320937	0.164359	-0.676216	-0.407887	0.150341	-0.700908	-0.271261	0.063617	-0.786298	-0.215911	0.076876	-0.732445	-0.191269	0.062688	-0.743041	
3	0.0150	-0.307631	1.559072	-0.572696	-0.253134	1.547717	-0.764417	-0.284118	1.546941	-0.387574	-0.156191	1.506908	-0.574256	-0.172548	1.052324	-0.453824	-0.164629	1.051285	-0.700380	-0.240466	1.115596	-0.410705	-0.236620	1.119367	-0.741016	-0.341832	1.107993	-0.544286	-0.339125	1.106844	-0.607474	-0.339526	1.108551	-0.578197	-0.243402	0.833394	-0.366491	-0.236680	0.772543	-0.362713	-0.165647	0.789028	-0.366073	-0.179483	0.846463	-0.369936	-0.252760	0.561683	-0.376560	-0.213543	0.537857	-0.502392	-0.343357	0.331949	-0.376306	-0.357715	0.294593	-0.390449	-0.300531	0.276224	-0.378521	-0.289290	0.313887	-0.368876	-0.367934	0.168145	-0.393547	-0.315515	0.166331	-0.469076	-0.410690	0.158652	-0.447671	-0.272405	0.071486	-0.364064	-0.217237	0.085360	-0.426618	-0.190374	0.074847	-0.416200	-0.280187	0.806185	-0.766139	-0.267357	0.748024	-0.763753	-0.199786	0.764250	-0.786033	-0.221026	0.822351	-0.786061	-0.248937	0.539132	-0.765026	-0.222737	0.515857	-0.646000	-0.349273	0.311299	-0.759340	-0.000000	0.000000	-0.000000	-0.301233	0.258545	-0.769024	-0.298156	0.302090	-0.775871	-0.352794	0.156403	-0.763324	-0.320966	0.164538	-0.677590	-0.407694	0.149462	-0.703288	-0.269737	0.062293	-0.785831	-0.215287	0.075844	-0.731216	-0.190405	0.061695	-0.741109	
4	0.0200	-0.307363	1.557935	-0.573134	-0.252752	1.546097	-0.765076	-0.283894	1.545389	-0.387709	-0.156098	1.505521	-0.574655	-0.173036	1.051096	-0.454289	-0.164793	1.049832	-0.700629	-0.241021	1.114334	-0.411195	-0.236604	1.117825	-0.741441	-0.342413	1.106390	-0.545034	-0.339593	1.105259	-0.608258	-0.339960	1.106947	-0.578845	-0.243004	0.832258	-0.366916	-0.236128	0.771404	-0.363106	-0.165180	0.788030	-0.366611	-0.179156	0.845512	-0.370506	-0.251807	0.560587	-0.376912	-0.213227	0.536889	-0.502933	-0.342932	0.331066	-0.376719	-0.357326	0.293768	-0.390722	-0.300193	0.275257	-0.379307	-0.288763	0.312847	-0.369651	-0.367845	0.167355	-0.394144	-0.315724	0.165849	-0.470002	-0.411030	0.157960	-0.448013	-0.272153	0.070549	-0.365651	-0.217375	0.084712	-0.428577	-0.190371	0.074111	-0.418508	-0.279072	0.804947	-0.767362	-0.266303	0.746762	-0.764860	-0.198483	0.763020	-0.786384	-0.219691	0.821125	-0.786572	-0.248175	0.538120	-0.765805	-0.222699	0.514802	-0.646643	-0.348629	0.310307	-0.760943	-0.000000	0.000000	-0.000000	-0.300453	0.257421	-0.770068	-0.297373	0.300942	-0.776905	-0.351744	0.155068	-0.764675	-0.321209	0.163141	-0.678313	-0.407496	0.148514	-0.705643	-0.268286	0.060766	-0.785321	-0.214710	0.074661	-0.729967	-0.189650	0.060506	-0.739230	
5	0.0250	-0.307096	1.556576	-0.573567	-0.252353	1.544253	-0.765731	-0.283647	1.543625	-0.387850	-0.156015	1.503911	-0.575061	-0.173547	1.049652	-0.454708	-0.164912	1.048178	-0.700872	-0.241631	1.112827	-0.411683	-0.236579	1.116101	-0.741870	-0.342994	1.104546	-0.545789	-0.340051	1.103435	-0.609044	-0.340410	1.105101	-0.579507	-0.242630	0.830866	-0.367360	-0.235590	0.770036	-0.363513	-0.164729	0.786780	-0.367084	-0.178853	0.844335	-0.371030	-0.250792	0.559292	-0.377295	-0.212937	0.535712	-0.503490	-0.342466	0.329919	-0.377038	-0.357034	0.292741	-0.391053	-0.299824	0.274066	-0.380125	-0.288201	0.311583	-0.370438	-0.367770	0.166369	-0.394754	-0.315944	0.165153	-0.470938	-0.411388	0.157101	-0.448364	-0.271953	0.069318	-0.367260	-0.217581	0.083716	-0.430487	-0.190424	0.073016	-0.420819	-0.278024	0.803564	-0.768527	-0.265310	0.745357	-0.765930	-0.197273	0.761635	-0.786728	-0.218450	0.819756	-0.787079	-0.247390	0.536881	-0.766564	-0.222851	0.513535	-0.647233	-0.347575	0.309157	-0.762849	-0.000000	0.000000	-0.000000	-0.299415	0.255987	-0.771029	-0.296329	0.299465	-0.777871	-0.350649	0.153491	-0.766045	-0.321203	0.162154	-0.679383	-0.407255	0.147407	-0.707978	-0.266969	0.058717	-0.784596	-0.214265	0.072996	-0.728516	-0.189073	0.058802	-0.737128	
6	0.0300	-0.306839	1.555013	-0.573994	-0.251958	1.542217	-0.766387	-0.283394	1.541675	-0.387999	-0.155932	1.502094	-0.575464	-0.174069	1.047998	-0.455088	-0.164996	1.046344	-0.701118	-0.242269	1.111094	-0.412182	-0.236596	1.114210	-0.742323	-0.343571	1.102500	-0.546553	-0.340512	1.101398	-0.609831	-0.340899	1.103042	-0.580206	-0.242280	0.829252	-0.367815	-0.235056	0.768443	-0.363939	-0.164285	0.785271	-0.367513	-0.178570	0.842905	-0.371512	-0.249715	0.557690	-0.377612	-0.212636	0.534344	-0.504031	-0.341903	0.328662	-0.377268	-0.356738	0.291465	-0.391431	-0.299427	0.272680	-0.380957	-0.287623	0.310113	-0.371235	-0.367720	0.165148	-0.395378	-0.316350	0.164173	-0.471918	-0.411784	0.156100	-0.448745	-0.271869	0.067816	-0.368869	-0.217849	0.082441	-0.432382	-0.190563	0.071570	-0.423097	-0.277053	0.802031	-0.769627	-0.264388	0.743802	-0.766951	-0.196157	0.760105	-0.787082	-0.217316	0.818240	-0.787585	-0.246580	0.535407	-0.767307	-0.223200	0.512063	-0.647753	-0.346329	0.307258	-0.764980	-0.000000	0.000000	-0.000000	-0.298178	0.254289	-0.771928	-0.295124	0.297677	-0.778749	-0.349538	0.151711	-0.767439	-0.321287	0.160931	-0.680460	-0.407019	0.146126	-0.710269	-0.265796	0.056207	-0.783743	-0.213971	0.070898	-0.726964	-0.188682	0.056668	-0.734932	
7	0.0350	-0.306596	1.553193	-0.574418	-0.251559	1.539942	-0.767034	-0.283121	1.539502	-0.388154	-0.155857	1.500037	-0.575867	-0.174618	1.046102	-0.455440	-0.165042	1.044312	-0.701376	-0.242961	1.109096	-0.412688	-0.236624	1.112131	-0.742795	-0.344141	1.100212	-0.547331	-0.340966	1.099120	-0.610627	-0.341401	1.100732	-0.580938	-0.241960	0.827369	-0.368287	-0.234542	0.766590	-0.364381	-0.163855	0.783522	-0.367918	-0.178316	0.841213	-0.371967	-0.248608	0.555867	-0.377936	-0.212304	0.532758	-0.504553	-0.341317	0.327157	-0.377496	-0.356459	0.289949	-0.391832	-0.299029	0.271054	-0.381806	-0.287045	0.308398	-0.372043	-0.367725	0.163723	-0.396048	-0.316795	0.162964	-0.472918	-0.412209	0.154951	-0.449179	-0.271919	0.065995	-0.370493	-0.218213	0.080794	-0.434200	-0.190804	0.069777	-0.425345	-0.276172	0.800321	-0.770649	-0.263549	0.742073	-0.767908	-0.195152	0.758402	-0.787443	-0.216296	0.816555	-0.788081	-0.245735	0.533657	-0.768030	-0.223767	0.510374	-0.648221	-0.344860	0.305142	-0.767152	-0.000000	0.000000	-0.000000	-0.296782	0.252292	-0.772763	-0.293705	0.295594	-0.779611	-0.348443	0.149705	-0.768852	-0.321203	0.159221	-0.681493	-0.406785	0.144637	-0.712534	-0.264777	0.053347	-0.782906	-0.213862	0.068456	-0.725399	-0.188527	0.054139	-0.732822	
